<svg width="94" height="18" viewBox="0 0 94 18" fill="none" xmlns="http://www.w3.org/2000/svg">
<path fill-rule="evenodd" clip-rule="evenodd" d="M0 17.6236V0.887139H6.83836V17.6236H4.91737V3.31549H1.92851V17.6236H0ZM12.0377 0.511232C10.9165 0.511232 10.0345 1.30547 9.39177 2.89394C8.74867 4.49745 8.42712 6.5993 8.42712 9.19842C8.42712 11.8888 8.738 14.0283 9.35974 15.6168C9.9708 17.2058 10.8635 18 12.0373 18C13.233 18 14.1683 17.1676 14.8431 15.5029C15.4858 13.9144 15.8073 11.8056 15.8073 9.17533C15.8073 6.57621 15.4751 4.48188 14.811 2.89394C14.147 1.30547 13.2227 0.511232 12.0377 0.511232ZM10.2603 9.22152C10.2603 7.38172 10.4118 5.8883 10.7148 4.74071C11.007 3.58561 11.448 3.00779 12.0377 3.00779C12.6911 3.00779 13.1641 3.59313 13.4564 4.76381C13.7167 5.78949 13.8468 7.26036 13.8468 9.17533C13.8468 11.0226 13.6953 12.5386 13.3924 13.7243C13.0898 14.91 12.6381 15.5029 12.0377 15.5029C11.4583 15.5029 11.0173 14.9025 10.7148 13.7018C10.4118 12.501 10.2603 11.0071 10.2603 9.22098V9.22152ZM21.5727 0.887139H23.5016V17.6236H21.5727V9.38047H19.8273C18.9983 9.38047 18.2971 9.01584 17.7232 8.28658C17.1339 7.57236 16.8388 6.67502 16.8388 5.59617V0.887139H18.7515V5.27665C18.7515 5.72505 18.8472 6.08216 19.0383 6.34798C19.304 6.70563 19.7027 6.88392 20.2339 6.88392H21.5727V0.887139ZM28.4621 17.6236H26.5411V3.36114H24.7079V0.887139H30.3111V3.36114H28.4621V17.6236ZM31.7962 0.887139H34.9128C35.832 0.887139 36.557 1.18786 37.0881 1.7877C37.7526 2.54059 38.0848 3.7263 38.0848 5.34485L39.0807 17.6236H37.1522L36.5463 9.28918H33.5258L33.3185 17.6236H31.39L31.7966 0.887139H31.7962ZM33.5578 6.83827H36.3232C36.233 5.54623 36.0788 4.65694 35.8613 4.17041C35.6006 3.61568 35.1652 3.33805 34.5541 3.33805H33.6294L33.5578 6.83827ZM46.0049 17.3293V0.592858H48.1806C49.6365 0.592858 50.6858 1.45529 51.3289 3.18124C51.7433 4.28265 51.9506 5.56019 51.9506 7.01119C51.9506 9.09424 51.6955 10.6747 51.1853 11.754C50.7391 12.6815 50.1732 13.1449 49.4878 13.1449C48.9404 13.1449 48.4436 12.8522 47.9975 12.2674V17.3293H46.0049ZM47.9817 2.873V8.03741C47.9817 8.84292 48.0746 9.46639 48.2605 9.90728C48.4357 10.3406 48.6536 10.5571 48.9139 10.5571C49.1848 10.5571 49.4185 10.3122 49.6151 9.82135C49.8117 9.3316 49.9102 8.63456 49.9102 7.7297C49.9102 6.04994 49.7575 4.81697 49.4518 4.02971C49.1464 3.24353 48.7228 2.85044 48.1806 2.85044C48.1146 2.86294 48.0482 2.87047 47.9817 2.873ZM56.5444 0.216415C55.4232 0.216415 54.5412 1.01119 53.8985 2.59912C53.2554 4.20317 52.9338 6.30448 52.9338 8.90361C52.9338 11.5946 53.2447 13.734 53.8664 15.3225C54.4775 16.9109 55.3702 17.7052 56.544 17.7052C57.7397 17.7052 58.6747 16.8728 59.3498 15.2081C59.9925 13.6202 60.314 11.5108 60.314 8.88105C60.314 6.28193 59.9818 4.18759 59.3178 2.59912C58.6533 1.01065 57.729 0.216415 56.5444 0.216415ZM54.767 8.9267C54.767 7.08744 54.9185 5.59402 55.2211 4.44643C55.5137 3.29079 55.9543 2.71351 56.5444 2.71351C57.1978 2.71351 57.6708 3.29885 57.9627 4.46952C58.2234 5.49521 58.3535 6.96608 58.3535 8.88105C58.3535 10.7284 58.202 12.2443 57.8991 13.4301C57.5961 14.6158 57.1448 15.2086 56.5444 15.2086C55.965 15.2086 55.524 14.6083 55.2211 13.4075C54.9185 12.2062 54.767 10.7128 54.767 8.9267ZM63.5687 9.01799C63.5687 10.789 63.9274 12.2368 64.6445 13.3619C65.4153 14.5626 66.4963 15.163 67.8884 15.163V17.8427C65.8642 17.8427 64.2755 17.0022 63.1226 15.3225C62.023 13.719 61.4729 11.6252 61.4729 9.04054C61.4729 6.36517 61.9803 4.26385 62.9952 2.73606C64.1054 1.0563 65.7262 0.216415 67.8568 0.216415V2.89609C66.433 2.89609 65.3461 3.48841 64.597 4.67413C63.9116 5.74599 63.5687 7.19377 63.5687 9.01799ZM71.0636 9.01799C71.0636 10.789 71.4223 12.2368 72.1394 13.3619C72.9102 14.5626 73.9912 15.163 75.3834 15.163V17.8427C73.3591 17.8427 71.7704 17.0022 70.6175 15.3225C69.5176 13.719 68.9678 11.6252 68.9678 9.04054C68.9678 6.36517 69.4752 4.26385 70.4897 2.73606C71.6003 1.0563 73.2207 0.216415 75.3513 0.216415V2.89609C73.9275 2.89609 72.841 3.48841 72.0919 4.67413C71.4065 5.74599 71.0636 7.19377 71.0636 9.01799ZM83.9944 0L84.4967 17.3293H82.5358L82.2091 5.96241L78.9176 10.4432L78.9335 17.3293H76.9729V0.592858H78.9335V6.77222L83.9944 0ZM93.4977 0L94 17.3293H92.0391L91.7124 5.96241L88.4209 10.4432L88.4368 17.3293H86.4762V0.592858H88.4368V6.77222L93.4973 0H93.4977Z" fill="white"/>
</svg>
