<svg width="51" height="22" viewBox="0 0 51 22" fill="none" xmlns="http://www.w3.org/2000/svg">
<path fill-rule="evenodd" clip-rule="evenodd" d="M4.83972 16.0452C2.64497 16.0452 1.64607 16.6563 1.25214 17.9354L0 22H42.6571C44.8519 22 45.8508 21.3889 46.2447 20.1098L47.4968 16.0452H4.83972ZM9.9749 10.3747H7.86455C4.57241 10.3747 6.96414 3.31137 9.73572 3.31137H13.0701C13.6047 3.31137 14.5473 3.41085 15.0116 2.07494L15.7291 0H11.1567C8.68055 0 6.7531 0.881137 5.36028 2.35917C2.95448 4.88889 2.13848 8.8398 2.71531 10.73C3.264 12.478 4.75531 13.6292 7.09076 13.6576L8.90565 13.6718H11.1426L11.6913 12.009C12.0993 10.8295 11.1848 10.3747 9.9749 10.3747ZM35.6648 7.44703L36.3542 5.18734H28.9961C27.7721 5.18734 27.2234 5.52842 27.0124 6.23902L26.323 8.49871H33.6811C34.9051 8.49871 35.4538 8.15762 35.6648 7.44703ZM25.2257 11.4264L24.5363 13.686H31.8943C33.1043 13.686 33.667 13.345 33.8781 12.6344L34.5675 10.3747H27.2094C25.9994 10.3747 25.4508 10.7158 25.2257 11.4264ZM37.3812 2.2739L38.0706 0.0142117H30.7126C29.4886 0.0142117 28.9399 0.355297 28.7288 1.06589L28.0394 3.32558H35.3975C36.6074 3.32558 37.1561 2.9845 37.3812 2.2739ZM26.2668 2.72868C25.9572 0.625324 24.8458 0.0142117 22.1446 0.0142117H17.2204L14.3503 8.49871H16.1652C17.2486 8.49871 17.7972 8.51292 18.3741 6.94961L19.5699 3.31137H21.3989C22.9606 3.31137 22.6088 5.28682 21.821 7.20543C21.1175 8.89664 19.8935 10.3889 18.4163 10.3889H15.3633C14.1393 10.3889 13.5766 10.73 13.3514 11.4406L12.5917 13.7003H14.8287L17.0234 13.686C18.965 13.6718 20.5548 13.5297 22.4119 11.8385C24.3815 10.0336 26.6607 5.40052 26.2668 2.72868ZM51 0H46.7371L42.7275 4.3062C42.2632 4.80362 41.7848 5.30103 41.3206 5.88372H41.2783L43.2761 0H39.8011L35.1161 13.686H38.5912L40.0825 9.37985L41.6301 8.05814L42.8541 11.9522C43.2339 13.1602 43.6279 13.686 44.472 13.686H47.131L44.4017 6.04005L51 0Z" fill="white"/>
<path d="M6.61972 19.0725V20.2174H6V17.0435H7.22535C7.57746 17.0435 7.85915 17.1304 8.05634 17.3188C8.25352 17.5072 8.3662 17.7536 8.3662 18.058C8.3662 18.3623 8.26761 18.6087 8.05634 18.7971C7.85915 18.9855 7.57746 19.0725 7.22535 19.0725H6.61972ZM6.61972 18.5797H7.22535C7.39437 18.5797 7.52113 18.5362 7.61972 18.4348C7.70423 18.3333 7.74648 18.2174 7.74648 18.0725C7.74648 17.913 7.70423 17.7971 7.61972 17.6957C7.53521 17.5942 7.39437 17.5507 7.22535 17.5507H6.61972V18.5797ZM10.1268 19.5362H9.04225L8.83099 20.2174H8.21127L9.26761 17.0435H9.90141L10.9577 20.2174H10.338L10.1268 19.5362ZM9.19718 19.029H9.97183L9.59155 17.7826H9.57747L9.19718 19.029ZM13.2254 17.5362H11.8592V18.1594H12.3944C12.7465 18.1594 13.0282 18.2609 13.2394 18.4493C13.4507 18.6377 13.5493 18.8841 13.5493 19.1884C13.5493 19.4928 13.4507 19.7391 13.2394 19.9275C13.0282 20.1159 12.7465 20.2174 12.3944 20.2174H11.2113V17.0435H13.2254V17.5362ZM11.8592 18.6522V19.7246H12.3944C12.5634 19.7246 12.7042 19.6667 12.7887 19.5652C12.8732 19.4638 12.9296 19.3333 12.9296 19.1739C12.9296 19.029 12.8873 18.8985 12.7887 18.7971C12.6901 18.6957 12.5634 18.6377 12.3944 18.6377H11.8592V18.6522ZM16.4507 18.913C16.4507 19.3043 16.338 19.6232 16.0986 19.8841C15.8592 20.1449 15.5493 20.2609 15.169 20.2609C14.7887 20.2609 14.4789 20.1304 14.2394 19.8841C14 19.6377 13.8873 19.3043 13.8873 18.913V18.3478C13.8873 17.9565 14 17.6377 14.2394 17.3768C14.4789 17.1159 14.7887 17 15.169 17C15.5493 17 15.8592 17.1304 16.0986 17.3768C16.338 17.6232 16.4648 17.9565 16.4648 18.3478V18.913H16.4507ZM15.831 18.3478C15.831 18.1014 15.7746 17.8986 15.6479 17.7391C15.5211 17.5797 15.3662 17.5072 15.1549 17.5072C14.9437 17.5072 14.7746 17.5797 14.662 17.7391C14.5493 17.8986 14.493 18.1014 14.493 18.3478V18.9275C14.493 19.1739 14.5493 19.3913 14.662 19.5362C14.7746 19.6957 14.9437 19.7681 15.1549 19.7681C15.3662 19.7681 15.5352 19.6957 15.6479 19.5362C15.7606 19.3768 15.831 19.1739 15.831 18.9275V18.3478ZM18.9859 17.5362H18.1127V20.2174H17.493V17.5362H16.6197V17.0435H18.9718V17.5362H18.9859ZM20.7746 19.5362H19.6901L19.4789 20.2174H18.8592L19.9155 17.0435H20.5493L21.6056 20.2174H20.9859L20.7746 19.5362ZM19.8451 19.029H20.6197L20.2394 17.7826H20.2254L19.8451 19.029ZM23.8028 18.8261H22.5211V19.7246H24.0141V20.2174H21.9014V17.0435H24.0141V17.5362H22.5211V18.3333H23.8028V18.8261ZM25.1972 17.0435L25.9859 19.3768H26L26.7887 17.0435H27.5916V20.2174H26.9718V19.2754L27.0282 17.8696H27.0141L26.1831 20.2174H25.7746L24.9577 17.8841H24.9437L25 19.2754V20.2174H24.3803V17.0435H25.1972ZM29.2535 20.2174V17.0435H30.2958C30.662 17.0435 30.9437 17.1159 31.1408 17.2609C31.338 17.4058 31.4507 17.6232 31.4507 17.913C31.4507 18.058 31.4085 18.1884 31.338 18.3043C31.2676 18.4203 31.1549 18.5072 31.0141 18.5652C31.1972 18.6087 31.338 18.6957 31.4366 18.8261C31.5352 18.9565 31.5775 19.1159 31.5775 19.2899C31.5775 19.5942 31.4789 19.8261 31.2817 19.9855C31.0845 20.1449 30.8169 20.2174 30.4507 20.2174H29.2535ZM29.8732 18.3768H30.3239C30.493 18.3768 30.6197 18.3478 30.7042 18.2754C30.7887 18.2029 30.831 18.1014 30.831 17.971C30.831 17.8261 30.7887 17.7101 30.6901 17.6522C30.6056 17.5797 30.4648 17.5507 30.2958 17.5507H29.8732V18.3768ZM29.8732 18.8116V19.7246H30.4366C30.6056 19.7246 30.7183 19.6812 30.8169 19.6087C30.9155 19.5362 30.9437 19.4203 30.9437 19.2899C30.9437 19.1304 30.9014 19.0145 30.831 18.9275C30.7606 18.8406 30.6479 18.8116 30.4789 18.8116H29.8732ZM34.3662 19.1304C34.3803 19.4783 34.2817 19.7536 34.0704 19.9565C33.8592 20.1594 33.5775 20.2609 33.1972 20.2609C32.831 20.2609 32.5211 20.1449 32.2958 19.8986C32.0704 19.6522 31.9437 19.3333 31.9437 18.9565V18.3333C31.9437 17.942 32.0563 17.6377 32.2817 17.3913C32.507 17.1449 32.8028 17.0145 33.169 17.0145C33.5493 17.0145 33.8451 17.1159 34.0563 17.3188C34.2676 17.5217 34.3803 17.7971 34.3662 18.1449V18.1594H33.7606C33.7606 17.9565 33.7183 17.7971 33.6197 17.6812C33.5211 17.5652 33.3662 17.5217 33.169 17.5217C32.9859 17.5217 32.831 17.5942 32.7324 17.7536C32.6197 17.913 32.5634 18.1014 32.5634 18.3478V18.9855C32.5634 19.2319 32.6197 19.4203 32.7324 19.5797C32.8451 19.7391 33 19.8116 33.1972 19.8116C33.3944 19.8116 33.5352 19.7536 33.6197 19.6522C33.7183 19.5507 33.7606 19.3913 33.7606 19.1739H34.3662V19.1304ZM36.7042 18.8261H35.4225V19.7246H36.9155V20.2174H34.8028V17.0435H36.9155V17.5362H35.4225V18.3333H36.7042V18.8261ZM39.3099 17.5362H37.9155V20.2174H37.2958V17.0435H39.3099V17.5362ZM42.169 21H41.6056V20.2174H39.7183V21H39.1549L39.1127 19.7246H39.3521C39.4648 19.6232 39.5634 19.4783 39.6479 19.2609C39.7324 19.058 39.7746 18.7391 39.7887 18.3333L39.8732 17.029H41.8732V19.7101H42.2394L42.169 21ZM40.3803 18.3478C40.3662 18.6667 40.3239 18.942 40.2676 19.1594C40.2113 19.3913 40.1268 19.5797 40.0282 19.7246H41.2394V17.5362H40.4366L40.3803 18.3478ZM44.2676 19.5362H43.1831L42.9718 20.2174H42.3521L43.4085 17.0435H44.0423L45.0986 20.2174H44.4789L44.2676 19.5362ZM43.338 19.029H44.1127L43.7324 17.7826H43.7183L43.338 19.029ZM46 19.1159H45.3803V17.0435H46V19.1159ZM46 20.2174H45.3803V19.6667H46V20.2174Z" fill="#161C24"/>
</svg>
