<svg width="24" height="24" viewBox="0 0 24 24" fill="none" xmlns="http://www.w3.org/2000/svg">
<path fill-rule="evenodd" clip-rule="evenodd" d="M12 2.5C6.7533 2.5 2.5 6.75329 2.5 12C2.5 17.2467 6.7533 21.5 12 21.5C17.2467 21.5 21.5 17.2467 21.5 12C21.5 6.75329 17.2467 2.5 12 2.5ZM1.5 12C1.5 6.20101 6.20101 1.5 12 1.5C17.799 1.5 22.5 6.20101 22.5 12C22.5 17.799 17.799 22.5 12 22.5C6.20101 22.5 1.5 17.799 1.5 12Z" fill="#4D4D4D"/>
<path fill-rule="evenodd" clip-rule="evenodd" d="M11.5 7C11.5 6.72386 11.7239 6.5 12 6.5H12.01C12.2861 6.5 12.51 6.72386 12.51 7C12.51 7.27614 12.2861 7.5 12.01 7.5H12C11.7239 7.5 11.5 7.27614 11.5 7Z" fill="#4D4D4D"/>
<path fill-rule="evenodd" clip-rule="evenodd" d="M9.5 11C9.5 10.7239 9.72386 10.5 10 10.5H12C12.2761 10.5 12.5 10.7239 12.5 11V16C12.5 16.2761 12.2761 16.5 12 16.5C11.7239 16.5 11.5 16.2761 11.5 16V11.5H10C9.72386 11.5 9.5 11.2761 9.5 11Z" fill="#4D4D4D"/>
<path fill-rule="evenodd" clip-rule="evenodd" d="M9.5 16C9.5 15.7239 9.72386 15.5 10 15.5H14C14.2761 15.5 14.5 15.7239 14.5 16C14.5 16.2761 14.2761 16.5 14 16.5H10C9.72386 16.5 9.5 16.2761 9.5 16Z" fill="#4D4D4D"/>
</svg>
